<svg xmlns="http://www.w3.org/2000/svg" width="1080" height="640" viewBox="0 0 1080 640" role="img" aria-label="Admin roles and access">
<defs>
<marker id="screen-arrow" markerWidth="10" markerHeight="10" refX="8" refY="3" orient="auto" markerUnits="strokeWidth">
<path d="M0,0 L0,6 L9,3 z" fill="#0f172a" />
</marker>
</defs>
<rect width="1080" height="640" rx="18" fill="#f8fafc" />
<rect x="20" y="20" width="1040" height="600" rx="14" fill="#ffffff" stroke="#cbd5e1" />
<rect x="20" y="20" width="210" height="600" rx="14" fill="#f1f5f9" />
<rect x="20" y="20" width="1040" height="56" rx="14" fill="#ffffff" stroke="#e2e8f0" />
<text x="44" y="55" font-family="Inter, Arial, sans-serif" font-size="17" font-weight="800" fill="#0f172a">Ergo</text>
<text x="260" y="55" font-family="Inter, Arial, sans-serif" font-size="21" font-weight="800" fill="#0f172a">Admin Dashboard</text>
<rect x="34" y="88" width="164" height="32" rx="7" fill="#e2e8f0" />
<text x="54" y="108" font-family="Inter, Arial, sans-serif" font-size="13" font-weight="700" fill="#0f172a">Admin</text>
<rect x="34" y="130" width="164" height="32" rx="7" fill="transparent" />
<text x="54" y="150" font-family="Inter, Arial, sans-serif" font-size="13" font-weight="500" fill="#0f172a">Teams</text>
<rect x="34" y="172" width="164" height="32" rx="7" fill="transparent" />
<text x="54" y="192" font-family="Inter, Arial, sans-serif" font-size="13" font-weight="500" fill="#0f172a">Members</text>
<rect x="34" y="214" width="164" height="32" rx="7" fill="transparent" />
<text x="54" y="234" font-family="Inter, Arial, sans-serif" font-size="13" font-weight="500" fill="#0f172a">Access</text>
<rect x="34" y="256" width="164" height="32" rx="7" fill="transparent" />
<text x="54" y="276" font-family="Inter, Arial, sans-serif" font-size="13" font-weight="500" fill="#0f172a">Settings</text>
<rect x="34" y="298" width="164" height="32" rx="7" fill="transparent" />
<text x="54" y="318" font-family="Inter, Arial, sans-serif" font-size="13" font-weight="500" fill="#0f172a">Billing</text>
<rect x="260" y="128" width="300" height="90" rx="10" fill="#ffffff" stroke="#cbd5e1" />
<rect x="260" y="128" width="5" height="90" rx="3" fill="#2563eb" />
<text x="282" y="158" font-family="Inter, Arial, sans-serif" font-size="15" font-weight="700" fill="#0f172a">RevOps</text>
<text x="282" y="184" font-family="Inter, Arial, sans-serif" font-size="13" fill="#475569">Workspace setup and governance</text>
<text x="282" y="202" font-family="Inter, Arial, sans-serif" font-size="13" fill="#475569">owner</text>
<rect x="590" y="128" width="300" height="90" rx="10" fill="#ffffff" stroke="#cbd5e1" />
<rect x="590" y="128" width="5" height="90" rx="3" fill="#2563eb" />
<text x="612" y="158" font-family="Inter, Arial, sans-serif" font-size="15" font-weight="700" fill="#0f172a">Operators</text>
<text x="612" y="184" font-family="Inter, Arial, sans-serif" font-size="13" fill="#475569">Delegated configuration and team</text>
<text x="612" y="202" font-family="Inter, Arial, sans-serif" font-size="13" fill="#475569">management</text>
<rect x="260" y="254" width="300" height="116" rx="10" fill="#ffffff" stroke="#cbd5e1" />
<rect x="260" y="254" width="5" height="116" rx="3" fill="#2563eb" />
<text x="282" y="284" font-family="Inter, Arial, sans-serif" font-size="15" font-weight="700" fill="#0f172a">Team members</text>
<text x="282" y="310" font-family="Inter, Arial, sans-serif" font-size="13" fill="#475569">Users, spectators, and desktop</text>
<text x="282" y="328" font-family="Inter, Arial, sans-serif" font-size="13" fill="#475569">users</text>
<rect x="590" y="254" width="300" height="116" rx="10" fill="#ffffff" stroke="#cbd5e1" />
<rect x="590" y="254" width="5" height="116" rx="3" fill="#2563eb" />
<text x="612" y="284" font-family="Inter, Arial, sans-serif" font-size="15" font-weight="700" fill="#0f172a">Access controls</text>
<text x="612" y="310" font-family="Inter, Arial, sans-serif" font-size="13" fill="#475569">Meeting visibility, reporting,</text>
<text x="612" y="328" font-family="Inter, Arial, sans-serif" font-size="13" fill="#475569">role changes</text>
<rect x="260" y="402" width="630" height="70" rx="10" fill="#ffffff" stroke="#cbd5e1" />
<rect x="260" y="402" width="5" height="70" rx="3" fill="#2563eb" />
<text x="282" y="432" font-family="Inter, Arial, sans-serif" font-size="15" font-weight="700" fill="#0f172a">Sync settings to team members</text>
<text x="282" y="458" font-family="Inter, Arial, sans-serif" font-size="13" fill="#475569">Use after CRM, templates, or defaults are configured</text>
<circle cx="496" cy="156" r="18" fill="#ea580c" fill-opacity="0.12" stroke="#ea580c" stroke-width="3" />
<path d="M 514 156 L 710 72" stroke="#ea580c" stroke-width="2" marker-end="url(#screen-arrow)" />
<rect x="710" y="50" width="216" height="44" rx="8" fill="#ffffff" stroke="#ea580c" />
<text x="724" y="68" font-family="Inter, Arial, sans-serif" font-size="12" fill="#0f172a">RevOps owns setup</text>
<circle cx="740" cy="308" r="18" fill="#0f766e" fill-opacity="0.12" stroke="#0f766e" stroke-width="3" />
<path d="M 758 308 L 812 382" stroke="#0f766e" stroke-width="2" marker-end="url(#screen-arrow)" />
<rect x="812" y="360" width="234" height="44" rx="8" fill="#ffffff" stroke="#0f766e" />
<text x="826" y="378" font-family="Inter, Arial, sans-serif" font-size="12" fill="#0f172a">Grant only needed access</text>
<circle cx="532" cy="438" r="18" fill="#ea580c" fill-opacity="0.12" stroke="#ea580c" stroke-width="3" />
<path d="M 550 438 L 720 504" stroke="#ea580c" stroke-width="2" marker-end="url(#screen-arrow)" />
<rect x="720" y="482" width="244" height="44" rx="8" fill="#ffffff" stroke="#ea580c" />
<text x="734" y="500" font-family="Inter, Arial, sans-serif" font-size="12" fill="#0f172a">Sync after setup is ready</text>
</svg>
