<svg xmlns="http://www.w3.org/2000/svg" width="1080" height="640" viewBox="0 0 1080 640" role="img" aria-label="Drafts and templates">
<defs>
<marker id="screen-arrow" markerWidth="10" markerHeight="10" refX="8" refY="3" orient="auto" markerUnits="strokeWidth">
<path d="M0,0 L0,6 L9,3 z" fill="#0f172a" />
</marker>
</defs>
<rect width="1080" height="640" rx="18" fill="#f8fafc" />
<rect x="20" y="20" width="1040" height="600" rx="14" fill="#ffffff" stroke="#cbd5e1" />
<rect x="20" y="20" width="210" height="600" rx="14" fill="#f1f5f9" />
<rect x="20" y="20" width="1040" height="56" rx="14" fill="#ffffff" stroke="#e2e8f0" />
<text x="44" y="55" font-family="Inter, Arial, sans-serif" font-size="17" font-weight="800" fill="#0f172a">Ergo</text>
<text x="260" y="55" font-family="Inter, Arial, sans-serif" font-size="21" font-weight="800" fill="#0f172a">Drafts</text>
<rect x="34" y="88" width="164" height="32" rx="7" fill="#e2e8f0" />
<text x="54" y="108" font-family="Inter, Arial, sans-serif" font-size="13" font-weight="700" fill="#0f172a">Drafts</text>
<rect x="34" y="130" width="164" height="32" rx="7" fill="transparent" />
<text x="54" y="150" font-family="Inter, Arial, sans-serif" font-size="13" font-weight="500" fill="#0f172a">Needs review</text>
<rect x="34" y="172" width="164" height="32" rx="7" fill="transparent" />
<text x="54" y="192" font-family="Inter, Arial, sans-serif" font-size="13" font-weight="500" fill="#0f172a">Failed</text>
<rect x="34" y="214" width="164" height="32" rx="7" fill="transparent" />
<text x="54" y="234" font-family="Inter, Arial, sans-serif" font-size="13" font-weight="500" fill="#0f172a">Scheduled</text>
<rect x="34" y="256" width="164" height="32" rx="7" fill="transparent" />
<text x="54" y="276" font-family="Inter, Arial, sans-serif" font-size="13" font-weight="500" fill="#0f172a">Sent</text>
<rect x="34" y="298" width="164" height="32" rx="7" fill="transparent" />
<text x="54" y="318" font-family="Inter, Arial, sans-serif" font-size="13" font-weight="500" fill="#0f172a">Templates</text>
<rect x="260" y="128" width="280" height="92" rx="10" fill="#ffffff" stroke="#cbd5e1" />
<rect x="260" y="128" width="5" height="92" rx="3" fill="#2563eb" />
<text x="282" y="158" font-family="Inter, Arial, sans-serif" font-size="15" font-weight="700" fill="#0f172a">Needs review</text>
<text x="282" y="184" font-family="Inter, Arial, sans-serif" font-size="13" fill="#475569">AI drafts should be checked</text>
<text x="282" y="202" font-family="Inter, Arial, sans-serif" font-size="13" fill="#475569">before sending</text>
<rect x="570" y="128" width="280" height="92" rx="10" fill="#ffffff" stroke="#cbd5e1" />
<rect x="570" y="128" width="5" height="92" rx="3" fill="#2563eb" />
<text x="592" y="158" font-family="Inter, Arial, sans-serif" font-size="15" font-weight="700" fill="#0f172a">Reprompt</text>
<text x="592" y="184" font-family="Inter, Arial, sans-serif" font-size="13" fill="#475569">Ask for shorter, warmer, or</text>
<text x="592" y="202" font-family="Inter, Arial, sans-serif" font-size="13" fill="#475569">more detailed copy</text>
<rect x="260" y="254" width="280" height="92" rx="10" fill="#ffffff" stroke="#cbd5e1" />
<rect x="260" y="254" width="5" height="92" rx="3" fill="#2563eb" />
<text x="282" y="284" font-family="Inter, Arial, sans-serif" font-size="15" font-weight="700" fill="#0f172a">Send or schedule</text>
<text x="282" y="310" font-family="Inter, Arial, sans-serif" font-size="13" fill="#475569">Confirm recipients, links,</text>
<text x="282" y="328" font-family="Inter, Arial, sans-serif" font-size="13" fill="#475569">and timing</text>
<rect x="570" y="254" width="280" height="92" rx="10" fill="#ffffff" stroke="#cbd5e1" />
<rect x="570" y="254" width="5" height="92" rx="3" fill="#2563eb" />
<text x="592" y="284" font-family="Inter, Arial, sans-serif" font-size="15" font-weight="700" fill="#0f172a">Failed drafts</text>
<text x="592" y="310" font-family="Inter, Arial, sans-serif" font-size="13" fill="#475569">Reconnect email, retry, or</text>
<text x="592" y="328" font-family="Inter, Arial, sans-serif" font-size="13" fill="#475569">report the issue</text>
<rect x="260" y="382" width="590" height="70" rx="10" fill="#ffffff" stroke="#cbd5e1" />
<rect x="260" y="382" width="5" height="70" rx="3" fill="#2563eb" />
<text x="282" y="412" font-family="Inter, Arial, sans-serif" font-size="15" font-weight="700" fill="#0f172a">Templates</text>
<text x="282" y="438" font-family="Inter, Arial, sans-serif" font-size="13" fill="#475569">Set reusable follow-up structure and team tone</text>
<circle cx="406" cy="166" r="18" fill="#ea580c" fill-opacity="0.12" stroke="#ea580c" stroke-width="3" />
<path d="M 424 166 L 656 76" stroke="#ea580c" stroke-width="2" marker-end="url(#screen-arrow)" />
<rect x="656" y="54" width="286" height="44" rx="8" fill="#ffffff" stroke="#ea580c" />
<text x="670" y="72" font-family="Inter, Arial, sans-serif" font-size="12" fill="#0f172a">Review AI output before sending</text>
<circle cx="700" cy="300" r="18" fill="#0f766e" fill-opacity="0.12" stroke="#0f766e" stroke-width="3" />
<path d="M 718 300 L 794 378" stroke="#0f766e" stroke-width="2" marker-end="url(#screen-arrow)" />
<rect x="794" y="356" width="340" height="44" rx="8" fill="#ffffff" stroke="#0f766e" />
<text x="808" y="374" font-family="Inter, Arial, sans-serif" font-size="12" fill="#0f172a">Failures usually start with email</text>
<text x="808" y="391" font-family="Inter, Arial, sans-serif" font-size="12" fill="#0f172a">connection</text>
<circle cx="550" cy="420" r="18" fill="#ea580c" fill-opacity="0.12" stroke="#ea580c" stroke-width="3" />
<path d="M 568 420 L 742 510" stroke="#ea580c" stroke-width="2" marker-end="url(#screen-arrow)" />
<rect x="742" y="488" width="262" height="44" rx="8" fill="#ffffff" stroke="#ea580c" />
<text x="756" y="506" font-family="Inter, Arial, sans-serif" font-size="12" fill="#0f172a">Templates shape future drafts</text>
</svg>
