<svg xmlns="http://www.w3.org/2000/svg" width="1080" height="640" viewBox="0 0 1080 640" role="img" aria-label="Field mapping">
<defs>
<marker id="screen-arrow" markerWidth="10" markerHeight="10" refX="8" refY="3" orient="auto" markerUnits="strokeWidth">
<path d="M0,0 L0,6 L9,3 z" fill="#0f172a" />
</marker>
</defs>
<rect width="1080" height="640" rx="18" fill="#f8fafc" />
<rect x="20" y="20" width="1040" height="600" rx="14" fill="#ffffff" stroke="#cbd5e1" />
<rect x="20" y="20" width="210" height="600" rx="14" fill="#f1f5f9" />
<rect x="20" y="20" width="1040" height="56" rx="14" fill="#ffffff" stroke="#e2e8f0" />
<text x="44" y="55" font-family="Inter, Arial, sans-serif" font-size="17" font-weight="800" fill="#0f172a">Ergo</text>
<text x="260" y="55" font-family="Inter, Arial, sans-serif" font-size="21" font-weight="800" fill="#0f172a">Field Mapping</text>
<rect x="34" y="88" width="164" height="32" rx="7" fill="#e2e8f0" />
<text x="54" y="108" font-family="Inter, Arial, sans-serif" font-size="13" font-weight="700" fill="#0f172a">CRM</text>
<rect x="34" y="130" width="164" height="32" rx="7" fill="transparent" />
<text x="54" y="150" font-family="Inter, Arial, sans-serif" font-size="13" font-weight="500" fill="#0f172a">Properties</text>
<rect x="34" y="172" width="164" height="32" rx="7" fill="transparent" />
<text x="54" y="192" font-family="Inter, Arial, sans-serif" font-size="13" font-weight="500" fill="#0f172a">Pipelines</text>
<rect x="34" y="214" width="164" height="32" rx="7" fill="transparent" />
<text x="54" y="234" font-family="Inter, Arial, sans-serif" font-size="13" font-weight="500" fill="#0f172a">Stages</text>
<rect x="34" y="256" width="164" height="32" rx="7" fill="transparent" />
<text x="54" y="276" font-family="Inter, Arial, sans-serif" font-size="13" font-weight="500" fill="#0f172a">Drift</text>
<rect x="34" y="298" width="164" height="32" rx="7" fill="transparent" />
<text x="54" y="318" font-family="Inter, Arial, sans-serif" font-size="13" font-weight="500" fill="#0f172a">Permissions</text>
<rect x="260" y="128" width="280" height="92" rx="10" fill="#ffffff" stroke="#cbd5e1" />
<rect x="260" y="128" width="5" height="92" rx="3" fill="#2563eb" />
<text x="282" y="158" font-family="Inter, Arial, sans-serif" font-size="15" font-weight="700" fill="#0f172a">CRM properties</text>
<text x="282" y="184" font-family="Inter, Arial, sans-serif" font-size="13" fill="#475569">Map each Ergo field to the</text>
<text x="282" y="202" font-family="Inter, Arial, sans-serif" font-size="13" fill="#475569">right CRM property</text>
<rect x="570" y="128" width="280" height="92" rx="10" fill="#ffffff" stroke="#cbd5e1" />
<rect x="570" y="128" width="5" height="92" rx="3" fill="#2563eb" />
<text x="592" y="158" font-family="Inter, Arial, sans-serif" font-size="15" font-weight="700" fill="#0f172a">Property permissions</text>
<text x="592" y="184" font-family="Inter, Arial, sans-serif" font-size="13" fill="#475569">Connected CRM user must read</text>
<text x="592" y="202" font-family="Inter, Arial, sans-serif" font-size="13" fill="#475569">and update fields</text>
<rect x="260" y="254" width="280" height="92" rx="10" fill="#ffffff" stroke="#cbd5e1" />
<rect x="260" y="254" width="5" height="92" rx="3" fill="#2563eb" />
<text x="282" y="284" font-family="Inter, Arial, sans-serif" font-size="15" font-weight="700" fill="#0f172a">Pipelines and stages</text>
<text x="282" y="310" font-family="Inter, Arial, sans-serif" font-size="13" fill="#475569">Match Ergo stages to CRM</text>
<text x="282" y="328" font-family="Inter, Arial, sans-serif" font-size="13" fill="#475569">stages</text>
<rect x="570" y="254" width="280" height="92" rx="10" fill="#ffffff" stroke="#cbd5e1" />
<rect x="570" y="254" width="5" height="92" rx="3" fill="#2563eb" />
<text x="592" y="284" font-family="Inter, Arial, sans-serif" font-size="15" font-weight="700" fill="#0f172a">Stage drift</text>
<text x="592" y="310" font-family="Inter, Arial, sans-serif" font-size="13" fill="#475569">Resolve renamed, deleted, or</text>
<text x="592" y="328" font-family="Inter, Arial, sans-serif" font-size="13" fill="#475569">reordered stages</text>
<rect x="260" y="382" width="590" height="70" rx="10" fill="#ffffff" stroke="#cbd5e1" />
<rect x="260" y="382" width="5" height="70" rx="3" fill="#2563eb" />
<text x="282" y="412" font-family="Inter, Arial, sans-serif" font-size="15" font-weight="700" fill="#0f172a">Test one record</text>
<text x="282" y="438" font-family="Inter, Arial, sans-serif" font-size="13" fill="#475569">Verify writeback before enabling broader automation</text>
<circle cx="432" cy="166" r="18" fill="#ea580c" fill-opacity="0.12" stroke="#ea580c" stroke-width="3" />
<path d="M 450 166 L 692 76" stroke="#ea580c" stroke-width="2" marker-end="url(#screen-arrow)" />
<rect x="692" y="54" width="312" height="44" rx="8" fill="#ffffff" stroke="#ea580c" />
<text x="706" y="72" font-family="Inter, Arial, sans-serif" font-size="12" fill="#0f172a">Mapping is required before</text>
<text x="706" y="89" font-family="Inter, Arial, sans-serif" font-size="12" fill="#0f172a">writeback</text>
<circle cx="742" cy="166" r="18" fill="#0f766e" fill-opacity="0.12" stroke="#0f766e" stroke-width="3" />
<path d="M 760 166 L 806 218" stroke="#0f766e" stroke-width="2" marker-end="url(#screen-arrow)" />
<rect x="806" y="196" width="224" height="44" rx="8" fill="#ffffff" stroke="#0f766e" />
<text x="820" y="214" font-family="Inter, Arial, sans-serif" font-size="12" fill="#0f172a">Check CRM permissions</text>
<circle cx="742" cy="300" r="18" fill="#ea580c" fill-opacity="0.12" stroke="#ea580c" stroke-width="3" />
<path d="M 760 300 L 786 408" stroke="#ea580c" stroke-width="2" marker-end="url(#screen-arrow)" />
<rect x="786" y="386" width="254" height="44" rx="8" fill="#ffffff" stroke="#ea580c" />
<text x="800" y="404" font-family="Inter, Arial, sans-serif" font-size="12" fill="#0f172a">Fix drift after CRM changes</text>
</svg>
