<svg xmlns="http://www.w3.org/2000/svg" width="980" height="220" viewBox="0 0 980 220" role="img" aria-label="Meeting outputs">
<defs>
<marker id="arrow" markerWidth="10" markerHeight="10" refX="8" refY="3" orient="auto" markerUnits="strokeWidth">
<path d="M0,0 L0,6 L9,3 z" fill="#475569" />
</marker>
</defs>
<rect width="980" height="220" rx="16" fill="#f8fafc" />
<text x="40" y="42" font-family="Inter, Arial, sans-serif" font-size="22" font-weight="700" fill="#0f172a">Meeting outputs</text>
<path d="M 222 118 L 204.5 118" stroke="#475569" stroke-width="2" marker-end="url(#arrow)" /><rect x="40" y="72" width="170" height="72" rx="10" fill="#ffffff" stroke="#0f172a" stroke-width="1.5" />
<text x="125" y="112" text-anchor="middle" font-family="Inter, Arial, sans-serif" font-size="15" fill="#0f172a">Recording</text>
<path d="M 404.5 118 L 387 118" stroke="#475569" stroke-width="2" marker-end="url(#arrow)" /><rect x="222.5" y="72" width="170" height="72" rx="10" fill="#ffffff" stroke="#0f172a" stroke-width="1.5" />
<text x="307.5" y="112" text-anchor="middle" font-family="Inter, Arial, sans-serif" font-size="15" fill="#0f172a">Transcript</text>
<path d="M 587 118 L 569.5 118" stroke="#475569" stroke-width="2" marker-end="url(#arrow)" /><rect x="405" y="72" width="170" height="72" rx="10" fill="#ffffff" stroke="#0f172a" stroke-width="1.5" />
<text x="490" y="112" text-anchor="middle" font-family="Inter, Arial, sans-serif" font-size="15" fill="#0f172a">Summary</text>
<path d="M 769.5 118 L 752 118" stroke="#475569" stroke-width="2" marker-end="url(#arrow)" /><rect x="587.5" y="72" width="170" height="72" rx="10" fill="#ffffff" stroke="#0f172a" stroke-width="1.5" />
<text x="672.5" y="112" text-anchor="middle" font-family="Inter, Arial, sans-serif" font-size="15" fill="#0f172a">Insights</text>
<rect x="770" y="72" width="170" height="72" rx="10" fill="#ffffff" stroke="#0f172a" stroke-width="1.5" />
<text x="855" y="112" text-anchor="middle" font-family="Inter, Arial, sans-serif" font-size="15" fill="#0f172a">Drafts</text>
</svg>
