<svg xmlns="http://www.w3.org/2000/svg" width="1080" height="640" viewBox="0 0 1080 640" role="img" aria-label="Meetings and notetaker">
<defs>
<marker id="screen-arrow" markerWidth="10" markerHeight="10" refX="8" refY="3" orient="auto" markerUnits="strokeWidth">
<path d="M0,0 L0,6 L9,3 z" fill="#0f172a" />
</marker>
</defs>
<rect width="1080" height="640" rx="18" fill="#f8fafc" />
<rect x="20" y="20" width="1040" height="600" rx="14" fill="#ffffff" stroke="#cbd5e1" />
<rect x="20" y="20" width="210" height="600" rx="14" fill="#f1f5f9" />
<rect x="20" y="20" width="1040" height="56" rx="14" fill="#ffffff" stroke="#e2e8f0" />
<text x="44" y="55" font-family="Inter, Arial, sans-serif" font-size="17" font-weight="800" fill="#0f172a">Ergo</text>
<text x="260" y="55" font-family="Inter, Arial, sans-serif" font-size="21" font-weight="800" fill="#0f172a">Upcoming meetings</text>
<rect x="34" y="88" width="164" height="32" rx="7" fill="#e2e8f0" />
<text x="54" y="108" font-family="Inter, Arial, sans-serif" font-size="13" font-weight="700" fill="#0f172a">Dashboard</text>
<rect x="34" y="130" width="164" height="32" rx="7" fill="transparent" />
<text x="54" y="150" font-family="Inter, Arial, sans-serif" font-size="13" font-weight="500" fill="#0f172a">Meetings</text>
<rect x="34" y="172" width="164" height="32" rx="7" fill="transparent" />
<text x="54" y="192" font-family="Inter, Arial, sans-serif" font-size="13" font-weight="500" fill="#0f172a">Notes</text>
<rect x="34" y="214" width="164" height="32" rx="7" fill="transparent" />
<text x="54" y="234" font-family="Inter, Arial, sans-serif" font-size="13" font-weight="500" fill="#0f172a">Clips</text>
<rect x="34" y="256" width="164" height="32" rx="7" fill="transparent" />
<text x="54" y="276" font-family="Inter, Arial, sans-serif" font-size="13" font-weight="500" fill="#0f172a">Share</text>
<rect x="34" y="298" width="164" height="32" rx="7" fill="transparent" />
<text x="54" y="318" font-family="Inter, Arial, sans-serif" font-size="13" font-weight="500" fill="#0f172a">History</text>
<rect x="260" y="128" width="630" height="72" rx="10" fill="#ffffff" stroke="#cbd5e1" />
<rect x="260" y="128" width="5" height="72" rx="3" fill="#2563eb" />
<text x="282" y="158" font-family="Inter, Arial, sans-serif" font-size="15" font-weight="700" fill="#0f172a">Customer meeting</text>
<text x="282" y="184" font-family="Inter, Arial, sans-serif" font-size="13" fill="#475569">Notetaker scheduled, calendar source connected</text>
<rect x="260" y="222" width="300" height="110" rx="10" fill="#ffffff" stroke="#cbd5e1" />
<rect x="260" y="222" width="5" height="110" rx="3" fill="#2563eb" />
<text x="282" y="252" font-family="Inter, Arial, sans-serif" font-size="15" font-weight="700" fill="#0f172a">Add Bot to Meeting</text>
<text x="282" y="278" font-family="Inter, Arial, sans-serif" font-size="13" fill="#475569">Manual dispatch for live or</text>
<text x="282" y="296" font-family="Inter, Arial, sans-serif" font-size="13" fill="#475569">external links</text>
<rect x="590" y="222" width="300" height="110" rx="10" fill="#ffffff" stroke="#cbd5e1" />
<rect x="590" y="222" width="5" height="110" rx="3" fill="#2563eb" />
<text x="612" y="252" font-family="Inter, Arial, sans-serif" font-size="15" font-weight="700" fill="#0f172a">Waiting room</text>
<text x="612" y="278" font-family="Inter, Arial, sans-serif" font-size="13" fill="#475569">Host may need to admit the Ergo</text>
<text x="612" y="296" font-family="Inter, Arial, sans-serif" font-size="13" fill="#475569">bot</text>
<rect x="260" y="364" width="630" height="84" rx="10" fill="#ffffff" stroke="#cbd5e1" />
<rect x="260" y="364" width="5" height="84" rx="3" fill="#2563eb" />
<text x="282" y="394" font-family="Inter, Arial, sans-serif" font-size="15" font-weight="700" fill="#0f172a">Processing outputs</text>
<text x="282" y="420" font-family="Inter, Arial, sans-serif" font-size="13" fill="#475569">Recording, transcript, summary, insights, and drafts can finish</text>
<text x="282" y="438" font-family="Inter, Arial, sans-serif" font-size="13" fill="#475569">separately</text>
<circle cx="772" cy="166" r="18" fill="#ea580c" fill-opacity="0.12" stroke="#ea580c" stroke-width="3" />
<path d="M 790 166 L 792 82" stroke="#ea580c" stroke-width="2" marker-end="url(#screen-arrow)" />
<rect x="792" y="60" width="314" height="44" rx="8" fill="#ffffff" stroke="#ea580c" />
<text x="806" y="78" font-family="Inter, Arial, sans-serif" font-size="12" fill="#0f172a">Check notetaker status before the</text>
<text x="806" y="95" font-family="Inter, Arial, sans-serif" font-size="12" fill="#0f172a">call</text>
<circle cx="404" cy="276" r="18" fill="#0f766e" fill-opacity="0.12" stroke="#0f766e" stroke-width="3" />
<path d="M 422 276 L 642 276" stroke="#0f766e" stroke-width="2" marker-end="url(#screen-arrow)" />
<rect x="642" y="254" width="214" height="44" rx="8" fill="#ffffff" stroke="#0f766e" />
<text x="656" y="272" font-family="Inter, Arial, sans-serif" font-size="12" fill="#0f172a">Use for external links</text>
<circle cx="742" cy="400" r="18" fill="#ea580c" fill-opacity="0.12" stroke="#ea580c" stroke-width="3" />
<path d="M 760 400 L 790 500" stroke="#ea580c" stroke-width="2" marker-end="url(#screen-arrow)" />
<rect x="790" y="478" width="312" height="44" rx="8" fill="#ffffff" stroke="#ea580c" />
<text x="804" y="496" font-family="Inter, Arial, sans-serif" font-size="12" fill="#0f172a">Outputs may arrive at different</text>
<text x="804" y="513" font-family="Inter, Arial, sans-serif" font-size="12" fill="#0f172a">times</text>
</svg>
