<svg xmlns="http://www.w3.org/2000/svg" width="1080" height="640" viewBox="0 0 1080 640" role="img" aria-label="Setup by role">
<defs>
<marker id="screen-arrow" markerWidth="10" markerHeight="10" refX="8" refY="3" orient="auto" markerUnits="strokeWidth">
<path d="M0,0 L0,6 L9,3 z" fill="#0f172a" />
</marker>
</defs>
<rect width="1080" height="640" rx="18" fill="#f8fafc" />
<rect x="20" y="20" width="1040" height="600" rx="14" fill="#ffffff" stroke="#cbd5e1" />
<rect x="20" y="20" width="210" height="600" rx="14" fill="#f1f5f9" />
<rect x="20" y="20" width="1040" height="56" rx="14" fill="#ffffff" stroke="#e2e8f0" />
<text x="44" y="55" font-family="Inter, Arial, sans-serif" font-size="17" font-weight="800" fill="#0f172a">Ergo</text>
<text x="260" y="55" font-family="Inter, Arial, sans-serif" font-size="21" font-weight="800" fill="#0f172a">Onboarding</text>
<rect x="34" y="88" width="164" height="32" rx="7" fill="#e2e8f0" />
<text x="54" y="108" font-family="Inter, Arial, sans-serif" font-size="13" font-weight="700" fill="#0f172a">Welcome</text>
<rect x="34" y="130" width="164" height="32" rx="7" fill="transparent" />
<text x="54" y="150" font-family="Inter, Arial, sans-serif" font-size="13" font-weight="500" fill="#0f172a">CRM</text>
<rect x="34" y="172" width="164" height="32" rx="7" fill="transparent" />
<text x="54" y="192" font-family="Inter, Arial, sans-serif" font-size="13" font-weight="500" fill="#0f172a">Email</text>
<rect x="34" y="214" width="164" height="32" rx="7" fill="transparent" />
<text x="54" y="234" font-family="Inter, Arial, sans-serif" font-size="13" font-weight="500" fill="#0f172a">Workspace</text>
<rect x="34" y="256" width="164" height="32" rx="7" fill="transparent" />
<text x="54" y="276" font-family="Inter, Arial, sans-serif" font-size="13" font-weight="500" fill="#0f172a">Templates</text>
<rect x="34" y="298" width="164" height="32" rx="7" fill="transparent" />
<text x="54" y="318" font-family="Inter, Arial, sans-serif" font-size="13" font-weight="500" fill="#0f172a">Notetaker</text>
<rect x="34" y="340" width="164" height="32" rx="7" fill="transparent" />
<text x="54" y="360" font-family="Inter, Arial, sans-serif" font-size="13" font-weight="500" fill="#0f172a">Reporting</text>
<rect x="260" y="132" width="640" height="68" rx="10" fill="#ffffff" stroke="#cbd5e1" />
<rect x="260" y="132" width="5" height="68" rx="3" fill="#2563eb" />
<text x="282" y="162" font-family="Inter, Arial, sans-serif" font-size="15" font-weight="700" fill="#0f172a">RevOps setup path</text>
<text x="282" y="188" font-family="Inter, Arial, sans-serif" font-size="13" fill="#475569">CRM, field mapping, teams, defaults, grading, reporting</text>
<rect x="260" y="220" width="640" height="68" rx="10" fill="#ffffff" stroke="#cbd5e1" />
<rect x="260" y="220" width="5" height="68" rx="3" fill="#2563eb" />
<text x="282" y="250" font-family="Inter, Arial, sans-serif" font-size="15" font-weight="700" fill="#0f172a">Operator support path</text>
<text x="282" y="276" font-family="Inter, Arial, sans-serif" font-size="13" fill="#475569">Delegated setup, users, templates, notetaker defaults</text>
<rect x="260" y="308" width="640" height="68" rx="10" fill="#ffffff" stroke="#cbd5e1" />
<rect x="260" y="308" width="5" height="68" rx="3" fill="#2563eb" />
<text x="282" y="338" font-family="Inter, Arial, sans-serif" font-size="15" font-weight="700" fill="#0f172a">User path</text>
<text x="282" y="364" font-family="Inter, Arial, sans-serif" font-size="13" fill="#475569">Email, calendar, personal preferences, drafts, test meeting</text>
<rect x="260" y="396" width="640" height="68" rx="10" fill="#ffffff" stroke="#cbd5e1" />
<rect x="260" y="396" width="5" height="68" rx="3" fill="#2563eb" />
<text x="282" y="426" font-family="Inter, Arial, sans-serif" font-size="15" font-weight="700" fill="#0f172a">Spectator path</text>
<text x="282" y="452" font-family="Inter, Arial, sans-serif" font-size="13" fill="#475569">Workspace, limited visibility, meeting or reporting access</text>
<circle cx="818" cy="164" r="18" fill="#ea580c" fill-opacity="0.12" stroke="#ea580c" stroke-width="3" />
<path d="M 836 164 L 850 94" stroke="#ea580c" stroke-width="2" marker-end="url(#screen-arrow)" />
<rect x="850" y="72" width="252" height="44" rx="8" fill="#ffffff" stroke="#ea580c" />
<text x="864" y="90" font-family="Inter, Arial, sans-serif" font-size="12" fill="#0f172a">Workspace owners start here</text>
<circle cx="356" cy="342" r="18" fill="#0f766e" fill-opacity="0.12" stroke="#0f766e" stroke-width="3" />
<path d="M 374 342 L 686 520" stroke="#0f766e" stroke-width="2" marker-end="url(#screen-arrow)" />
<rect x="686" y="498" width="250" height="44" rx="8" fill="#ffffff" stroke="#0f766e" />
<text x="700" y="516" font-family="Inter, Arial, sans-serif" font-size="12" fill="#0f172a">Users finish personal setup</text>
<circle cx="642" cy="430" r="18" fill="#ea580c" fill-opacity="0.12" stroke="#ea580c" stroke-width="3" />
<path d="M 660 430 L 790 454" stroke="#ea580c" stroke-width="2" marker-end="url(#screen-arrow)" />
<rect x="790" y="432" width="214" height="44" rx="8" fill="#ffffff" stroke="#ea580c" />
<text x="804" y="450" font-family="Inter, Arial, sans-serif" font-size="12" fill="#0f172a">Spectators stay limited</text>
</svg>
