<svg xmlns="http://www.w3.org/2000/svg" width="1080" height="640" viewBox="0 0 1080 640" role="img" aria-label="Reporting">
<defs>
<marker id="screen-arrow" markerWidth="10" markerHeight="10" refX="8" refY="3" orient="auto" markerUnits="strokeWidth">
<path d="M0,0 L0,6 L9,3 z" fill="#0f172a" />
</marker>
</defs>
<rect width="1080" height="640" rx="18" fill="#f8fafc" />
<rect x="20" y="20" width="1040" height="600" rx="14" fill="#ffffff" stroke="#cbd5e1" />
<rect x="20" y="20" width="210" height="600" rx="14" fill="#f1f5f9" />
<rect x="20" y="20" width="1040" height="56" rx="14" fill="#ffffff" stroke="#e2e8f0" />
<text x="44" y="55" font-family="Inter, Arial, sans-serif" font-size="17" font-weight="800" fill="#0f172a">Ergo</text>
<text x="260" y="55" font-family="Inter, Arial, sans-serif" font-size="21" font-weight="800" fill="#0f172a">Reporting</text>
<rect x="34" y="88" width="164" height="32" rx="7" fill="#e2e8f0" />
<text x="54" y="108" font-family="Inter, Arial, sans-serif" font-size="13" font-weight="700" fill="#0f172a">Dashboards</text>
<rect x="34" y="130" width="164" height="32" rx="7" fill="transparent" />
<text x="54" y="150" font-family="Inter, Arial, sans-serif" font-size="13" font-weight="500" fill="#0f172a">Reports</text>
<rect x="34" y="172" width="164" height="32" rx="7" fill="transparent" />
<text x="54" y="192" font-family="Inter, Arial, sans-serif" font-size="13" font-weight="500" fill="#0f172a">Charts</text>
<rect x="34" y="214" width="164" height="32" rx="7" fill="transparent" />
<text x="54" y="234" font-family="Inter, Arial, sans-serif" font-size="13" font-weight="500" fill="#0f172a">Filters</text>
<rect x="34" y="256" width="164" height="32" rx="7" fill="transparent" />
<text x="54" y="276" font-family="Inter, Arial, sans-serif" font-size="13" font-weight="500" fill="#0f172a">Share</text>
<rect x="34" y="298" width="164" height="32" rx="7" fill="transparent" />
<text x="54" y="318" font-family="Inter, Arial, sans-serif" font-size="13" font-weight="500" fill="#0f172a">Cadences</text>
<rect x="260" y="128" width="280" height="92" rx="10" fill="#ffffff" stroke="#cbd5e1" />
<rect x="260" y="128" width="5" height="92" rx="3" fill="#2563eb" />
<text x="282" y="158" font-family="Inter, Arial, sans-serif" font-size="15" font-weight="700" fill="#0f172a">Dashboard filters</text>
<text x="282" y="184" font-family="Inter, Arial, sans-serif" font-size="13" fill="#475569">Confirm team, date range, and</text>
<text x="282" y="202" font-family="Inter, Arial, sans-serif" font-size="13" fill="#475569">fields first</text>
<rect x="570" y="128" width="280" height="92" rx="10" fill="#ffffff" stroke="#cbd5e1" />
<rect x="570" y="128" width="5" height="92" rx="3" fill="#2563eb" />
<text x="592" y="158" font-family="Inter, Arial, sans-serif" font-size="15" font-weight="700" fill="#0f172a">Chart builder</text>
<text x="592" y="184" font-family="Inter, Arial, sans-serif" font-size="13" fill="#475569">Choose fields, buckets, and</text>
<text x="592" y="202" font-family="Inter, Arial, sans-serif" font-size="13" fill="#475569">drilldowns</text>
<rect x="260" y="254" width="280" height="92" rx="10" fill="#ffffff" stroke="#cbd5e1" />
<rect x="260" y="254" width="5" height="92" rx="3" fill="#2563eb" />
<text x="282" y="284" font-family="Inter, Arial, sans-serif" font-size="15" font-weight="700" fill="#0f172a">Custom fields</text>
<text x="282" y="310" font-family="Inter, Arial, sans-serif" font-size="13" fill="#475569">Fields must be mapped and</text>
<text x="282" y="328" font-family="Inter, Arial, sans-serif" font-size="13" fill="#475569">populated</text>
<rect x="570" y="254" width="280" height="92" rx="10" fill="#ffffff" stroke="#cbd5e1" />
<rect x="570" y="254" width="5" height="92" rx="3" fill="#2563eb" />
<text x="592" y="284" font-family="Inter, Arial, sans-serif" font-size="15" font-weight="700" fill="#0f172a">Share access</text>
<text x="592" y="310" font-family="Inter, Arial, sans-serif" font-size="13" fill="#475569">Viewers need reporting access</text>
<text x="592" y="328" font-family="Inter, Arial, sans-serif" font-size="13" fill="#475569">or a valid share link</text>
<rect x="260" y="382" width="590" height="70" rx="10" fill="#ffffff" stroke="#cbd5e1" />
<rect x="260" y="382" width="5" height="70" rx="3" fill="#2563eb" />
<text x="282" y="412" font-family="Inter, Arial, sans-serif" font-size="15" font-weight="700" fill="#0f172a">Cadences</text>
<text x="282" y="438" font-family="Inter, Arial, sans-serif" font-size="13" fill="#475569">Preview and review run history after enabling email delivery</text>
<circle cx="396" cy="166" r="18" fill="#ea580c" fill-opacity="0.12" stroke="#ea580c" stroke-width="3" />
<path d="M 414 166 L 690 78" stroke="#ea580c" stroke-width="2" marker-end="url(#screen-arrow)" />
<rect x="690" y="56" width="336" height="44" rx="8" fill="#ffffff" stroke="#ea580c" />
<text x="704" y="74" font-family="Inter, Arial, sans-serif" font-size="12" fill="#0f172a">Filters explain many empty dashboards</text>
<circle cx="722" cy="300" r="18" fill="#0f766e" fill-opacity="0.12" stroke="#0f766e" stroke-width="3" />
<path d="M 740 300 L 792 386" stroke="#0f766e" stroke-width="2" marker-end="url(#screen-arrow)" />
<rect x="792" y="364" width="244" height="44" rx="8" fill="#ffffff" stroke="#0f766e" />
<text x="806" y="382" font-family="Inter, Arial, sans-serif" font-size="12" fill="#0f172a">Sharing still needs access</text>
<circle cx="548" cy="420" r="18" fill="#ea580c" fill-opacity="0.12" stroke="#ea580c" stroke-width="3" />
<path d="M 566 420 L 748 508" stroke="#ea580c" stroke-width="2" marker-end="url(#screen-arrow)" />
<rect x="748" y="486" width="284" height="44" rx="8" fill="#ffffff" stroke="#ea580c" />
<text x="762" y="504" font-family="Inter, Arial, sans-serif" font-size="12" fill="#0f172a">Preview before recurring emails</text>
</svg>
